<svg id="visual" viewBox="0 0 900 900" width="900" height="900" xmlns="http://www.w3.org/2000/svg" xmlns:xlink="http://www.w3.org/1999/xlink" version="1.1"><rect x="0" y="0" width="900" height="900" fill="#001220"></rect><path d="M0 604L25 576.7C50 549.3 100 494.7 150 489.5C200 484.3 250 528.7 300 556.7C350 584.7 400 596.3 450 588.2C500 580 550 552 600 540.5C650 529 700 534 750 528.7C800 523.3 850 507.7 875 499.8L900 492L900 901L875 901C850 901 800 901 750 901C700 901 650 901 600 901C550 901 500 901 450 901C400 901 350 901 300 901C250 901 200 901 150 901C100 901 50 901 25 901L0 901Z" fill="#c62368"></path><path d="M0 499L25 520.2C50 541.3 100 583.7 150 608C200 632.3 250 638.7 300 645.3C350 652 400 659 450 650.7C500 642.3 550 618.7 600 599.3C650 580 700 565 750 570C800 575 850 600 875 612.5L900 625L900 901L875 901C850 901 800 901 750 901C700 901 650 901 600 901C550 901 500 901 450 901C400 901 350 901 300 901C250 901 200 901 150 901C100 901 50 901 25 901L0 901Z" fill="#d03267"></path><path d="M0 651L25 660.5C50 670 100 689 150 695.5C200 702 250 696 300 687.2C350 678.3 400 666.7 450 650C500 633.3 550 611.7 600 597.7C650 583.7 700 577.3 750 588.7C800 600 850 629 875 643.5L900 658L900 901L875 901C850 901 800 901 750 901C700 901 650 901 600 901C550 901 500 901 450 901C400 901 350 901 300 901C250 901 200 901 150 901C100 901 50 901 25 901L0 901Z" fill="#da3f67"></path><path d="M0 658L25 661.8C50 665.7 100 673.3 150 668C200 662.7 250 644.3 300 636C350 627.7 400 629.3 450 644.2C500 659 550 687 600 688.5C650 690 700 665 750 653C800 641 850 642 875 642.5L900 643L900 901L875 901C850 901 800 901 750 901C700 901 650 901 600 901C550 901 500 901 450 901C400 901 350 901 300 901C250 901 200 901 150 901C100 901 50 901 25 901L0 901Z" fill="#e34c67"></path><path d="M0 718L25 713.3C50 708.7 100 699.3 150 695.5C200 691.7 250 693.3 300 694.5C350 695.7 400 696.3 450 703.8C500 711.3 550 725.7 600 733.2C650 740.7 700 741.3 750 743.3C800 745.3 850 748.7 875 750.3L900 752L900 901L875 901C850 901 800 901 750 901C700 901 650 901 600 901C550 901 500 901 450 901C400 901 350 901 300 901C250 901 200 901 150 901C100 901 50 901 25 901L0 901Z" fill="#eb5967"></path><path d="M0 803L25 804C50 805 100 807 150 800C200 793 250 777 300 779.8C350 782.7 400 804.3 450 803.8C500 803.3 550 780.7 600 772.5C650 764.3 700 770.7 750 776C800 781.3 850 785.7 875 787.8L900 790L900 901L875 901C850 901 800 901 750 901C700 901 650 901 600 901C550 901 500 901 450 901C400 901 350 901 300 901C250 901 200 901 150 901C100 901 50 901 25 901L0 901Z" fill="#f36567"></path><path d="M0 857L25 857.7C50 858.3 100 859.7 150 850.8C200 842 250 823 300 811.8C350 800.7 400 797.3 450 797C500 796.7 550 799.3 600 803C650 806.7 700 811.3 750 816.2C800 821 850 826 875 828.5L900 831L900 901L875 901C850 901 800 901 750 901C700 901 650 901 600 901C550 901 500 901 450 901C400 901 350 901 300 901C250 901 200 901 150 901C100 901 50 901 25 901L0 901Z" fill="#fa7268"></path></svg>